<svg width="1600" height="1000" viewBox="0 0 1600 1000" fill="none" xmlns="http://www.w3.org/2000/svg">
  <rect width="1600" height="1000" rx="44" fill="#F8F6F0"/>
  <rect x="58" y="64" width="1484" height="872" rx="38" fill="url(#panel)"/>
  <rect x="92" y="104" width="1416" height="316" rx="30" fill="url(#hero)"/>
  <path d="M92 356C241 314 374 296 563 308C712 317 861 360 1088 366C1265 370 1386 338 1508 304V420H92V356Z" fill="url(#haze)"/>

  <rect x="124" y="452" width="1352" height="366" rx="34" fill="#FFFFFF" fill-opacity="0.97"/>
  <rect x="124" y="770" width="1352" height="48" rx="20" fill="#E5C98D"/>

  <g opacity="0.95">
    <rect x="186" y="154" width="346" height="154" rx="28" fill="#FFFFFF" fill-opacity="0.9"/>
    <text x="224" y="214" fill="#0F2D52" font-family="Arial, sans-serif" font-size="30" font-weight="700">Umzug &amp; Transport</text>
    <text x="224" y="260" fill="#1C4F86" font-family="Arial, sans-serif" font-size="23">Möbel, Kartons, Haushaltsservice</text>
  </g>

  <g opacity="0.94">
    <rect x="1126" y="258" width="246" height="118" rx="24" fill="#FFFFFF" fill-opacity="0.92"/>
    <path d="M1185 318L1226 359L1306 279" stroke="#C8A34F" stroke-width="24" stroke-linecap="round" stroke-linejoin="round"/>
  </g>

  <g>
    <rect x="232" y="562" width="642" height="146" rx="28" fill="#0F2D52"/>
    <rect x="300" y="518" width="420" height="118" rx="22" fill="#FFFFFF"/>
    <rect x="720" y="561" width="154" height="98" rx="18" fill="#1C4F86"/>
    <rect x="760" y="525" width="126" height="72" rx="18" fill="#C8A34F"/>
    <rect x="374" y="550" width="112" height="18" rx="9" fill="#E5C98D"/>
    <rect x="512" y="550" width="132" height="18" rx="9" fill="#E5C98D"/>
    <circle cx="396" cy="726" r="72" fill="#1B2430"/>
    <circle cx="396" cy="726" r="32" fill="#F8F6F0"/>
    <circle cx="782" cy="726" r="72" fill="#1B2430"/>
    <circle cx="782" cy="726" r="32" fill="#F8F6F0"/>
  </g>

  <g>
    <rect x="980" y="548" width="118" height="130" rx="14" fill="#C8A34F"/>
    <path d="M1039 548V678" stroke="#E9D4A1" stroke-width="6"/>
    <path d="M980 612H1098" stroke="#E9D4A1" stroke-width="6"/>

    <rect x="1116" y="578" width="164" height="110" rx="14" fill="#D5AF65"/>
    <path d="M1198 578V688" stroke="#EFDDB3" stroke-width="6"/>
    <path d="M1116 632H1280" stroke="#EFDDB3" stroke-width="6"/>

    <path d="M1342 500C1371 500 1394 524 1394 553V708H1288V553C1288 524 1312 500 1342 500Z" fill="#0F2D52"/>
    <circle cx="1322" cy="540" r="16" fill="#F8F6F0"/>
    <circle cx="1362" cy="540" r="16" fill="#F8F6F0"/>
    <rect x="1312" y="558" width="60" height="88" rx="25" fill="#F8F6F0"/>
    <path d="M1278 708H1405" stroke="#0F2D52" stroke-width="18" stroke-linecap="round"/>
  </g>

  <g opacity="0.88">
    <path d="M1440 540C1469 540 1490 564 1490 592V708H1405V592C1405 564 1428 540 1456 540H1440Z" fill="#1C4F86"/>
    <circle cx="1432" cy="580" r="15" fill="#F8F6F0"/>
    <circle cx="1468" cy="580" r="15" fill="#F8F6F0"/>
    <rect x="1422" y="598" width="58" height="82" rx="24" fill="#F8F6F0"/>
    <path d="M1398 708H1498" stroke="#1C4F86" stroke-width="18" stroke-linecap="round"/>
  </g>

  <defs>
    <linearGradient id="panel" x1="58" y1="64" x2="1542" y2="936" gradientUnits="userSpaceOnUse">
      <stop stop-color="#FEFDF9"/>
      <stop offset="0.58" stop-color="#F4F1EA"/>
      <stop offset="1" stop-color="#ECE4D1"/>
    </linearGradient>
    <linearGradient id="hero" x1="92" y1="104" x2="1508" y2="420" gradientUnits="userSpaceOnUse">
      <stop stop-color="#102F56"/>
      <stop offset="0.48" stop-color="#1A4A7E"/>
      <stop offset="1" stop-color="#345F8F"/>
    </linearGradient>
    <linearGradient id="haze" x1="274" y1="296" x2="1298" y2="404" gradientUnits="userSpaceOnUse">
      <stop stop-color="#C8A34F" stop-opacity="0.26"/>
      <stop offset="0.52" stop-color="#F8F6F0" stop-opacity="0.09"/>
      <stop offset="1" stop-color="#C8A34F" stop-opacity="0.2"/>
    </linearGradient>
  </defs>
</svg>
