<svg width="1600" height="1000" viewBox="0 0 1600 1000" fill="none" xmlns="http://www.w3.org/2000/svg">
  <rect width="1600" height="1000" rx="40" fill="#F8F6F0"/>
  <rect x="70" y="80" width="1460" height="840" rx="36" fill="url(#bg)"/>
  <circle cx="1300" cy="210" r="150" fill="#E9D4A1" fill-opacity="0.55"/>
  <circle cx="270" cy="210" r="120" fill="#DCE7F4"/>
  <rect x="205" y="230" width="620" height="500" rx="28" fill="#0F2D52"/>
  <rect x="245" y="270" width="110" height="130" rx="16" fill="#F8F6F0" fill-opacity="0.96"/>
  <rect x="385" y="270" width="110" height="130" rx="16" fill="#F8F6F0" fill-opacity="0.96"/>
  <rect x="525" y="270" width="110" height="130" rx="16" fill="#F8F6F0" fill-opacity="0.96"/>
  <rect x="665" y="270" width="110" height="130" rx="16" fill="#F8F6F0" fill-opacity="0.96"/>
  <rect x="245" y="430" width="110" height="130" rx="16" fill="#F8F6F0" fill-opacity="0.96"/>
  <rect x="385" y="430" width="110" height="130" rx="16" fill="#F8F6F0" fill-opacity="0.96"/>
  <rect x="525" y="430" width="110" height="130" rx="16" fill="#F8F6F0" fill-opacity="0.96"/>
  <rect x="665" y="430" width="110" height="130" rx="16" fill="#F8F6F0" fill-opacity="0.96"/>
  <rect x="940" y="250" width="360" height="420" rx="36" fill="#FFFFFF" fill-opacity="0.95"/>
  <circle cx="1120" cy="430" r="115" fill="#0F2D52" fill-opacity="0.08"/>
  <path d="M1065 508C1100 490 1126 441 1141 395C1159 340 1208 315 1263 328" stroke="#C8A34F" stroke-width="26" stroke-linecap="round"/>
  <path d="M1079 351L1111 384L1184 309" stroke="#C8A34F" stroke-width="26" stroke-linecap="round" stroke-linejoin="round"/>
  <rect x="993" y="565" width="255" height="22" rx="11" fill="#D9E5F2"/>
  <rect x="993" y="608" width="210" height="18" rx="9" fill="#D9E5F2"/>
  <rect x="160" y="770" width="1280" height="42" rx="21" fill="#0F2D52" fill-opacity="0.08"/>
  <defs>
    <linearGradient id="bg" x1="70" y1="80" x2="1530" y2="920" gradientUnits="userSpaceOnUse">
      <stop stop-color="#EEF4FB"/>
      <stop offset="0.58" stop-color="#FFFFFF"/>
      <stop offset="1" stop-color="#F4EFE4"/>
    </linearGradient>
  </defs>
</svg>
