<svg width="1600" height="1000" viewBox="0 0 1600 1000" fill="none" xmlns="http://www.w3.org/2000/svg">
  <rect width="1600" height="1000" rx="40" fill="#F8F6F0"/>
  <rect x="70" y="80" width="1460" height="840" rx="36" fill="url(#bg)"/>
  <rect x="180" y="215" width="820" height="450" rx="30" fill="#FFFFFF" fill-opacity="0.94"/>
  <rect x="240" y="540" width="650" height="34" rx="17" fill="#0F2D52"/>
  <rect x="260" y="355" width="300" height="155" rx="24" fill="#0F2D52"/>
  <rect x="605" y="335" width="250" height="175" rx="20" fill="#DCE7F4"/>
  <rect x="1035" y="200" width="350" height="520" rx="36" fill="#FFFFFF" fill-opacity="0.96"/>
  <circle cx="1210" cy="370" r="120" fill="#0F2D52" fill-opacity="0.08"/>
  <path d="M1160 470C1178 430 1195 374 1222 341C1247 311 1291 301 1335 318" stroke="#C8A34F" stroke-width="24" stroke-linecap="round"/>
  <path d="M1118 346L1156 385L1231 312" stroke="#C8A34F" stroke-width="26" stroke-linecap="round" stroke-linejoin="round"/>
  <rect x="1090" y="555" width="215" height="22" rx="11" fill="#D9E5F2"/>
  <rect x="1090" y="598" width="165" height="18" rx="9" fill="#D9E5F2"/>
  <circle cx="330" cy="240" r="72" fill="#E9D4A1" fill-opacity="0.65"/>
  <circle cx="873" cy="255" r="58" fill="#0F2D52" fill-opacity="0.08"/>
  <rect x="176" y="732" width="1248" height="48" rx="24" fill="#0F2D52" fill-opacity="0.08"/>
  <defs>
    <linearGradient id="bg" x1="70" y1="80" x2="1530" y2="920" gradientUnits="userSpaceOnUse">
      <stop stop-color="#EEF4FB"/>
      <stop offset="0.55" stop-color="#FFFFFF"/>
      <stop offset="1" stop-color="#F4EFE4"/>
    </linearGradient>
  </defs>
</svg>
