<svg width="1600" height="1000" viewBox="0 0 1600 1000" fill="none" xmlns="http://www.w3.org/2000/svg">
  <rect width="1600" height="1000" rx="40" fill="#F8F6F0"/>
  <rect x="64" y="72" width="1472" height="856" rx="36" fill="url(#panel)"/>
  <rect x="92" y="110" width="1416" height="308" rx="30" fill="url(#sky)"/>
  <path d="M92 360C268 316 403 301 600 321C748 336 893 383 1088 382C1238 381 1362 351 1508 314V418H92V360Z" fill="url(#cityGlow)"/>
  <rect x="126" y="470" width="1348" height="344" rx="34" fill="#FFFFFF" fill-opacity="0.96"/>
  <rect x="126" y="758" width="1348" height="56" rx="20" fill="#E9D4A1"/>

  <g opacity="0.95">
    <rect x="1086" y="265" width="252" height="120" rx="24" fill="#FFFFFF" fill-opacity="0.92"/>
    <path d="M1146 324L1192 370L1279 281" stroke="#C8A34F" stroke-width="24" stroke-linecap="round" stroke-linejoin="round"/>
  </g>

  <g opacity="0.9">
    <rect x="175" y="158" width="290" height="168" rx="28" fill="#FFFFFF" fill-opacity="0.86"/>
    <text x="210" y="220" fill="#0F2D52" font-family="Arial, sans-serif" font-size="30" font-weight="700">Transportservice</text>
    <text x="210" y="266" fill="#1C4F86" font-family="Arial, sans-serif" font-size="24">Umzug, Möbel, Haushalt</text>
  </g>

  <g>
    <rect x="262" y="565" width="620" height="150" rx="28" fill="#0F2D52"/>
    <rect x="334" y="520" width="404" height="122" rx="20" fill="#FFFFFF" fill-opacity="0.98"/>
    <rect x="738" y="565" width="144" height="98" rx="18" fill="#1C4F86"/>
    <rect x="770" y="528" width="120" height="74" rx="18" fill="#C8A34F"/>
    <rect x="402" y="553" width="118" height="18" rx="9" fill="#E9D4A1"/>
    <rect x="542" y="553" width="130" height="18" rx="9" fill="#E9D4A1"/>
    <rect x="353" y="685" width="58" height="14" rx="7" fill="#E9D4A1" fill-opacity="0.75"/>
    <rect x="733" y="685" width="78" height="14" rx="7" fill="#E9D4A1" fill-opacity="0.75"/>
    <circle cx="420" cy="736" r="72" fill="#1B2430"/>
    <circle cx="420" cy="736" r="32" fill="#F8F6F0"/>
    <circle cx="785" cy="736" r="72" fill="#1B2430"/>
    <circle cx="785" cy="736" r="32" fill="#F8F6F0"/>
  </g>

  <g opacity="0.98">
    <rect x="915" y="548" width="116" height="124" rx="12" fill="#C8A34F"/>
    <path d="M973 548V672" stroke="#D9BC79" stroke-width="6"/>
    <path d="M915 609H1031" stroke="#D9BC79" stroke-width="6"/>

    <rect x="1046" y="578" width="154" height="106" rx="12" fill="#D7B066"/>
    <path d="M1123 578V684" stroke="#E9D4A1" stroke-width="6"/>
    <path d="M1046 631H1200" stroke="#E9D4A1" stroke-width="6"/>

    <path d="M1266 500C1294 500 1317 523 1317 551V703H1214V551C1214 523 1238 500 1266 500Z" fill="#0F2D52"/>
    <circle cx="1246" cy="540" r="16" fill="#F8F6F0"/>
    <circle cx="1286" cy="540" r="16" fill="#F8F6F0"/>
    <rect x="1236" y="557" width="60" height="90" rx="24" fill="#F8F6F0"/>
    <rect x="1215" y="606" width="102" height="30" rx="15" fill="#F8F6F0"/>
    <path d="M1200 703H1332" stroke="#0F2D52" stroke-width="18" stroke-linecap="round"/>

    <path d="M1368 520C1395 520 1418 543 1418 570V703H1318V570C1318 543 1340 520 1368 520Z" fill="#1C4F86"/>
    <circle cx="1349" cy="560" r="15" fill="#F8F6F0"/>
    <circle cx="1388" cy="560" r="15" fill="#F8F6F0"/>
    <rect x="1338" y="576" width="62" height="86" rx="24" fill="#F8F6F0"/>
    <path d="M1308 703H1430" stroke="#1C4F86" stroke-width="18" stroke-linecap="round"/>
  </g>

  <g opacity="0.85">
    <rect x="966" y="476" width="122" height="18" rx="9" fill="#0F2D52" fill-opacity="0.16"/>
    <rect x="1122" y="470" width="174" height="18" rx="9" fill="#0F2D52" fill-opacity="0.16"/>
    <rect x="1122" y="502" width="130" height="14" rx="7" fill="#0F2D52" fill-opacity="0.12"/>
  </g>

  <defs>
    <linearGradient id="panel" x1="64" y1="72" x2="1536" y2="928" gradientUnits="userSpaceOnUse">
      <stop stop-color="#FDFCF8"/>
      <stop offset="0.6" stop-color="#F6F4EE"/>
      <stop offset="1" stop-color="#EEE7D7"/>
    </linearGradient>
    <linearGradient id="sky" x1="92" y1="110" x2="1508" y2="418" gradientUnits="userSpaceOnUse">
      <stop stop-color="#11315A"/>
      <stop offset="0.45" stop-color="#1B4C81"/>
      <stop offset="1" stop-color="#34679D"/>
    </linearGradient>
    <linearGradient id="cityGlow" x1="282" y1="294" x2="1279" y2="446" gradientUnits="userSpaceOnUse">
      <stop stop-color="#C8A34F" stop-opacity="0.26"/>
      <stop offset="0.52" stop-color="#F8F6F0" stop-opacity="0.08"/>
      <stop offset="1" stop-color="#C8A34F" stop-opacity="0.22"/>
    </linearGradient>
  </defs>
</svg>
