<svg width="1200" height="1200" viewBox="0 0 1200 1200" fill="none" xmlns="http://www.w3.org/2000/svg">
  <defs>
    <radialGradient id="planetGlow" cx="0" cy="0" r="1" gradientUnits="userSpaceOnUse" gradientTransform="translate(592 560) rotate(90) scale(392)">
      <stop offset="0" stop-color="#2F6DA5" stop-opacity="0.20"/>
      <stop offset="0.58" stop-color="#2F6DA5" stop-opacity="0.08"/>
      <stop offset="1" stop-color="#2F6DA5" stop-opacity="0"/>
    </radialGradient>
    <radialGradient id="planetBody" cx="0" cy="0" r="1" gradientUnits="userSpaceOnUse" gradientTransform="translate(592 560) rotate(82) scale(320 336)">
      <stop offset="0" stop-color="#DCEEFF" stop-opacity="0.90"/>
      <stop offset="0.28" stop-color="#7FB3E0" stop-opacity="0.34"/>
      <stop offset="0.72" stop-color="#2F6DA5" stop-opacity="0.22"/>
      <stop offset="1" stop-color="#0F4C81" stop-opacity="0.10"/>
    </radialGradient>
    <linearGradient id="energyRing" x1="180" y1="458" x2="1032" y2="670" gradientUnits="userSpaceOnUse">
      <stop offset="0" stop-color="#2F6DA5" stop-opacity="0"/>
      <stop offset="0.16" stop-color="#2F6DA5" stop-opacity="0.20"/>
      <stop offset="0.48" stop-color="#D4A63A" stop-opacity="0.24"/>
      <stop offset="0.82" stop-color="#2F6DA5" stop-opacity="0.18"/>
      <stop offset="1" stop-color="#2F6DA5" stop-opacity="0"/>
    </linearGradient>
    <linearGradient id="energyRingSoft" x1="126" y1="696" x2="1010" y2="344" gradientUnits="userSpaceOnUse">
      <stop offset="0" stop-color="#2F6DA5" stop-opacity="0"/>
      <stop offset="0.24" stop-color="#D4A63A" stop-opacity="0.18"/>
      <stop offset="0.6" stop-color="#2F6DA5" stop-opacity="0.16"/>
      <stop offset="1" stop-color="#2F6DA5" stop-opacity="0"/>
    </linearGradient>
    <filter id="softBlur" x="92" y="112" width="1016" height="896" filterUnits="userSpaceOnUse" color-interpolation-filters="sRGB">
      <feGaussianBlur stdDeviation="14"/>
    </filter>
  </defs>

  <circle cx="592" cy="560" r="392" fill="url(#planetGlow)"/>
  <circle cx="592" cy="560" r="320" fill="url(#planetBody)"/>
  <circle cx="592" cy="560" r="321.5" stroke="#2F6DA5" stroke-opacity="0.16" stroke-width="3"/>
  <circle cx="592" cy="560" r="280" stroke="#D4A63A" stroke-opacity="0.10" stroke-width="2"/>

  <ellipse cx="592" cy="560" rx="320" ry="110" stroke="#2F6DA5" stroke-opacity="0.13" stroke-width="2.5"/>
  <ellipse cx="592" cy="560" rx="320" ry="176" stroke="#2F6DA5" stroke-opacity="0.12" stroke-width="2.5"/>
  <ellipse cx="592" cy="560" rx="320" ry="246" stroke="#2F6DA5" stroke-opacity="0.10" stroke-width="2.5"/>
  <ellipse cx="592" cy="560" rx="132" ry="320" stroke="#2F6DA5" stroke-opacity="0.11" stroke-width="2.5"/>
  <ellipse cx="592" cy="560" rx="214" ry="320" stroke="#2F6DA5" stroke-opacity="0.11" stroke-width="2.5"/>
  <ellipse cx="592" cy="560" rx="286" ry="320" stroke="#2F6DA5" stroke-opacity="0.09" stroke-width="2.5"/>

  <path d="M438 284C500 318 548 352 582 420C624 502 706 554 814 598" stroke="#FFFFFF" stroke-opacity="0.18" stroke-width="12" stroke-linecap="round"/>
  <path d="M420 384C474 416 534 438 592 446C666 456 744 438 812 396" stroke="#FFFFFF" stroke-opacity="0.12" stroke-width="7" stroke-linecap="round"/>

  <g filter="url(#softBlur)">
    <ellipse cx="602" cy="534" rx="418" ry="156" transform="rotate(-10 602 534)" stroke="url(#energyRing)" stroke-width="16"/>
    <ellipse cx="564" cy="588" rx="452" ry="172" transform="rotate(18 564 588)" stroke="url(#energyRingSoft)" stroke-width="13"/>
  </g>

  <ellipse cx="602" cy="534" rx="418" ry="156" transform="rotate(-10 602 534)" stroke="url(#energyRing)" stroke-width="7"/>
  <ellipse cx="564" cy="588" rx="452" ry="172" transform="rotate(18 564 588)" stroke="url(#energyRingSoft)" stroke-width="5"/>

  <path d="M760 292L836 238L792 320L874 330L744 390L800 314L726 306L760 292Z" fill="#D4A63A" fill-opacity="0.16"/>
</svg>
